<svg xmlns="http://www.w3.org/2000/svg" viewBox="0 0 64 64" id="crane-truck">
  <g>
    <path d="M53,25.69H41.62V15.52a1,1,0,0,0-1-1H36.09L13.44,16.25a1,1,0,0,0-.92,1v6.87a1,1,0,0,0,1,1h1.22v.68a4.79,4.79,0,1,0,5.79,4.68,1,1,0,0,0-2,0,2.79,2.79,0,1,1-2.79-2.79,1,1,0,0,0,1-1V25.12H18a1,1,0,0,0,1-1V20.67h16.2V44h-27a1,1,0,0,0-1,1v7.5a1,1,0,0,0,1,1h3.42a6.27,6.27,0,0,0,12.53,0H36.06a6.27,6.27,0,0,0,12.53,0H59a1,1,0,0,0,1-1V33.69C60,29.28,56.81,25.69,53,25.69Zm0,2c2.75,0,5,2.69,5,6V48.85H52.2A7.07,7.07,0,0,0,45.44,44H41.8V27.69ZM17,23.12H14.52V20.67H17Zm19.2-4.45H14.52v-.49L36.2,16.52h3.42V44H37.17V19.67A1,1,0,0,0,36.17,18.67ZM9.17,46H45.44a5.32,5.32,0,0,1,5.11,4.09s0,.06,0,.1a.36.36,0,0,0,0,.09.78.78,0,0,0,.16.24.12.12,0,0,0,.05,0,.71.71,0,0,0,.27.18l0,0a1,1,0,0,0,.38.08h6.36v.65h-9.6a6.26,6.26,0,0,0-11.91,0H23.8a6.26,6.26,0,0,0-11.9,0H9.17Zm8.68,11.71a4.27,4.27,0,1,1,4.27-4.26A4.27,4.27,0,0,1,17.85,57.71Zm24.48,0a4.27,4.27,0,1,1,4.27-4.26A4.27,4.27,0,0,1,42.33,57.71Z"></path>
    <path d="M44.08 42h2.75a1 1 0 0 0 0-2H44.08a1 1 0 0 0 0 2zM17.85 50.54a2.91 2.91 0 1 0 2.9 2.91A2.9 2.9 0 0 0 17.85 50.54zm0 3.81a.91.91 0 1 1 .9-.9A.9.9 0 0 1 17.85 54.35zM42.33 50.54a2.91 2.91 0 1 0 2.9 2.91A2.91 2.91 0 0 0 42.33 50.54zm0 3.81a.91.91 0 1 1 .9-.9A.9.9 0 0 1 42.33 54.35zM45.45 38.3h9.32a1 1 0 0 0 1-1V34.62a5.27 5.27 0 0 0-5.26-5.26H45.45a1 1 0 0 0-1 1V37.3A1 1 0 0 0 45.45 38.3zm1-6.94h4.06a3.27 3.27 0 0 1 3.26 3.26V36.3H46.45z"></path>
  </g>
</svg>
